<svg xmlns="http://www.w3.org/2000/svg" version="1.1" viewBox="739 953 189.38 272.73">
<path d="M0 0 C62.37 0 124.74 0 189 0 C189 15.84 189 31.68 189 48 C145.935 48.495 145.935 48.495 102 49 C108.75884132 58.96205456 108.75884132 58.96205456 119.94230652 66.36076355 C121.14365738 66.35410172 122.34500824 66.34743988 123.58276367 66.34057617 C124.24644455 66.34101425 124.91012543 66.34145233 125.59391785 66.34190369 C127.78556839 66.33981519 129.97645201 66.31648268 132.16796875 66.29296875 C133.6882536 66.28737298 135.20854386 66.28310279 136.72883606 66.28010559 C140.72877965 66.26865524 144.72839606 66.23918672 148.72821045 66.20599365 C153.5280964 66.16989891 158.3280918 66.15613249 163.12807465 66.13863373 C170.41894394 66.10954915 177.70909543 66.05206412 185 66 C185 81.84 185 97.68 185 114 C178.4721875 114.1546875 178.4721875 114.1546875 171.8125 114.3125 C170.44843018 114.35802002 169.08436035 114.40354004 167.67895508 114.45043945 C158.80707262 114.55265768 158.80707262 114.55265768 155.05078125 111.98046875 C154.03564453 110.50513672 154.03564453 110.50513672 153 109 C151.95400335 107.74271852 150.89847761 106.49333191 149.8359375 105.25 C148.67992414 103.83526459 147.52637613 102.41851196 146.375 101 C145.13870727 99.48771983 143.90171927 97.97600779 142.6640625 96.46484375 C142.05079102 95.7157373 141.43751953 94.96663086 140.80566406 94.19482422 C138.14618618 90.9621706 135.45444103 87.75757377 132.75 84.5625 C132.2967334 84.02560547 131.8434668 83.48871094 131.37646484 82.93554688 C129.6395579 80.88740227 127.89990431 78.89990431 126 77 C129.20497604 81.49953499 132.58875082 85.72944169 136.3125 89.8125 C141.08226361 95.04973213 145.58891213 100.45916588 150 106 C150.52787109 106.66064453 151.05574219 107.32128906 151.59960938 108.00195312 C180.59683164 144.40411577 180.59683164 144.40411577 184 163 C178.51623703 163.37726133 173.03523064 163.64517876 167.54248047 163.85351562 C164.96910545 163.95992672 162.40006618 164.08378806 159.82861328 164.22460938 C156.0453799 164.42723234 152.2633737 164.5658438 148.47625732 164.67163086 C146.95710076 164.72364817 145.43848219 164.79526665 143.92120361 164.88696289 C139.13104777 165.16786426 134.68613883 165.23247388 130 164 C126.61172196 160.77582561 124.90164328 157.22562697 123 153 C120.11240958 148.91256598 117.06042992 144.95940051 114 141 C113.3814917 140.19804199 113.3814917 140.19804199 112.75048828 139.37988281 C105.6257452 130.16154881 98.24244528 121.16308293 90.81152344 112.19091797 C88.99740667 109.99686354 87.18911791 107.79814459 85.3828125 105.59765625 C79.56066865 98.5064515 73.70795142 91.4468732 67.76098633 84.45996094 C64.45200216 80.56212618 61.25597795 76.58595993 58.08203125 72.578125 C55.66915993 69.59032937 53.18207081 66.66941038 50.6875 63.75 C46.77700658 59.17086594 43.00560561 54.50599001 39.3125 49.75 C35.67529882 45.06886409 31.92151189 40.56943952 27.9375 36.17578125 C24.63178656 32.46351838 21.53539796 28.5816334 18.40429688 24.72216797 C16.75129467 22.69499872 15.08722829 20.67719091 13.421875 18.66015625 C12.48239014 17.52223633 12.48239014 17.52223633 11.52392578 16.36132812 C10.27804417 14.85307134 9.03164233 13.34524409 7.78466797 11.83789062 C6.92059326 10.79084961 6.92059326 10.79084961 6.0390625 9.72265625 C5.52553223 9.10140869 5.01200195 8.48016113 4.48291016 7.84008789 C0 2.27741192 0 2.27741192 0 0 Z M121 70 C121 70.99 121 71.98 121 73 C121.66 72.34 122.32 71.68 123 71 C122.34 70.67 121.68 70.34 121 70 Z " fill="#69DCDC" transform="translate(739,953)"/>
<path d="M0 0 C6.25733965 19.4672789 3.38834872 41.63519471 -5 60 C-15.74760809 79.99008068 -34.39915605 95.11803208 -55.81640625 102.3515625 C-79.93225938 109.58371695 -108.11553126 107.97130523 -130.671875 96.66015625 C-149.84316579 85.91351654 -162.72201979 67.47293074 -168.68066406 46.61767578 C-169.40304454 43.9607423 -170.08487426 41.29682117 -170.75 38.625 C-170.96092285 37.80008057 -171.1718457 36.97516113 -171.38916016 36.12524414 C-173.2491774 28.2388626 -173.44005786 21.39913204 -174 13 C-157.5 13 -141 13 -124 13 C-122.68 19.6 -121.36 26.2 -120 33 C-115.88456663 42.89286867 -112.22486599 50.387567 -102.46875 55.265625 C-91.34503095 59.80461381 -80.1731147 60.14187266 -68.9921875 55.84375 C-59.80522185 51.69925422 -53.47280323 46.19272984 -49.5 36.8125 C-46.32555112 26.73891554 -47.33942902 16.74961831 -51 7 C-51.5878125 5.205625 -51.5878125 5.205625 -52.1875 3.375 C-52.5896875 2.199375 -52.5896875 2.199375 -53 1 C-43.35244976 0.0200472 -33.71189668 -0.30999575 -24.02416992 -0.55761719 C-21.41107392 -0.6256884 -18.79836321 -0.70324821 -16.18554688 -0.78125 C-14.51824442 -0.82609151 -12.85092705 -0.87038288 -11.18359375 -0.9140625 C-10.40551865 -0.93796051 -9.62744354 -0.96185852 -8.82579041 -0.98648071 C-5.58863651 -1.06213045 -3.09815677 -1.03271892 0 0 Z " fill="#898A8A" transform="translate(925,1119)"/>
<path d="" fill="#000000" transform="translate(0,0)"/>
<path d="" fill="#008080" transform="translate(0,0)"/>
</svg>